<?xml version="1.0" encoding="utf-8"?>
<!-- Generator: Adobe Illustrator 19.2.1, SVG Export Plug-In . SVG Version: 6.00 Build 0)  -->
<svg version="1.1" id="Ebene_1" xmlns="http://www.w3.org/2000/svg" xmlns:xlink="http://www.w3.org/1999/xlink" x="0px" y="0px"
	 viewBox="0 0 64 64" style="enable-background:new 0 0 64 64;" xml:space="preserve">
<style type="text/css">
	.st0{fill:#FFFFFF;}
	.st1{opacity:0.12;fill-rule:evenodd;clip-rule:evenodd;fill:#420000;}
	.st2{fill:url(#SVGID_1_);}
</style>
<g>
	<path id="Triangle" class="st0" d="M26.2,41.1l16.2-8.4l-16.2-8.5V41.1z"/>
	<path id="The_Sharpness" class="st1" d="M26.2,24.2l14.2,9.5l2-1L26.2,24.2z"/>
	<g id="Lozenge">
		<g>
			<linearGradient id="SVGID_1_" gradientUnits="userSpaceOnUse" x1="32.4375" y1="12.1667" x2="32.4375" y2="54.4488">
				<stop  offset="0" style="stop-color:#E52D27"/>
				<stop  offset="1" style="stop-color:#BF171D"/>
			</linearGradient>
			<path class="st2" d="M61.9,21.3c0,0-0.6-4.1-2.4-6c-2.3-2.4-4.8-2.4-6-2.5c-8.4-0.6-21-0.6-21-0.6h0c0,0-12.6,0-21,0.6
				c-1.2,0.1-3.7,0.2-6,2.5c-1.8,1.8-2.4,6-2.4,6S2.4,26.2,2.4,31v4.6c0,4.9,0.6,9.7,0.6,9.7s0.6,4.1,2.4,6c2.3,2.4,5.3,2.3,6.6,2.6
				c4.8,0.5,20.4,0.6,20.4,0.6s12.6,0,21-0.6c1.2-0.1,3.7-0.2,6-2.5c1.8-1.8,2.4-6,2.4-6s0.6-4.9,0.6-9.7V31
				C62.5,26.2,61.9,21.3,61.9,21.3z M26.2,41.1l0-16.9l16.2,8.5L26.2,41.1z"/>
		</g>
	</g>
</g>
</svg>
